<svg xmlns="http://www.w3.org/2000/svg" width="200" height="200" viewBox="0 0 200 200" preserveAspectRatio="xMidYMid meet" style="width: 100%; height: 100%; transform: translate3d(0px, 0px, 0px); transform-origin: 0px 0px 0px;"><defs><clipPath id="animationMask_JrFjeLjYok"><rect width="200" height="200" x="0" y="0"></rect></clipPath><clipPath id="wb4CXsoRt7"><path fill="#ffffff" clip-rule="nonzero" d=" M-29.678,-11.5 C-29.678,-11.5 -29.678,35.6 -29.678,35.6 C-29.678,35.6 26.778,35.6 26.778,35.6 C26.778,35.6 26.778,-11.5 26.778,-11.5 C26.778,-11.5 -29.678,-11.5 -29.678,-11.5"></path></clipPath><clipPath id="AHTuTtpG7P"><path fill="#ffffff" clip-rule="nonzero" d=" M-27.5,-9.6 C-27.5,-9.6 -16.6,-5.3 -1.7,-5.3 C14.3,-5.3 25.6,-9.6 25.6,-9.6 C25.6,-9.6 25.6,30.4 25.6,30.4 C25.6,30.4 14.8,34.7 -1.7,34.7 C-16.6,34.7 -27.5,30.4 -27.5,30.4 C-27.5,30.4 -27.5,-9.6 -27.5,-9.6 C-27.5,-9.6 -27.5,-9.6 -27.5,-9.6"></path></clipPath><clipPath id="o47qoFxzkb"><path fill="#ffffff" clip-rule="nonzero" d=" M-18.5,-32.7 C-18.5,-32.6 -18.400000000000002,-32.5 -18.3,-32.4 C-17,-32.1 -9.6,-30.5 -0.5,-30.5 C8.3,-30.5 15,-32.1 16.3,-32.4 C16.400000000000002,-32.4 16.5,-32.5 16.5,-32.7 C16.5,-32.7 16.5,-46.1 16.5,-46.1 C16.5,-46.300000000000004 16.3,-46.4 16.1,-46.4 C14.600000000000001,-46 8.3,-44.7 -0.5,-44.5 C-10.2,-44.3 -16.6,-45.9 -18.1,-46.4 C-18.3,-46.5 -18.5,-46.300000000000004 -18.5,-46.1 C-18.5,-46.1 -18.5,-32.7 -18.5,-32.7 C-18.5,-32.7 -18.5,-32.7 -18.5,-32.7"></path></clipPath></defs><g clip-path="url(#animationMask_JrFjeLjYok)" style="-webkit-user-select: none;"><g class="bm_icon_hoverable" opacity="1"><g style="-webkit-user-select: none;" opacity="1"><g class="bm_shadow_hoverable" style="-webkit-user-select: none;"><g style="-webkit-user-select: none;" transform="matrix(1.1500000000000001,0,0,1.1500000000000001,100,100)"><path fill="rgb(1,1,1)" fill-opacity="0.08" style="display: block;" d=" M2.5,-30.5 C2.5,-30.5 -11.5,-30.5 -11.5,-30.5 C-11.5,-30.5 -11.5,-28 -11.5,-28 C-11.5,-28 -16,-25.400000000000002 -19.1,-21.1 C-19.700000000000003,-20.200000000000003 -20.3,-19.4 -20.7,-18.5 C-22.599999999999998,-15 -23.5,-11.1 -23.5,-7.2 C-23.5,-7.2 -23.5,46.5 -23.5,46.5 C-23.5,46.5 -11.7,51.7 2.5,51.6 C2.5,51.6 2.5,-30.5 2.5,-30.5z"></path><path fill="rgb(1,1,1)" fill-opacity="0.08" style="display: block;" d=" M2,-30.5 C2,-30.5 17.5,-30.5 17.5,-30.5 C17.5,-30.5 17.5,-28 17.5,-28 C17.5,-28 22,-25.400000000000002 25.1,-21.1 C25.700000000000003,-20.200000000000003 26.3,-19.4 26.7,-18.5 C28.599999999999998,-15 29.5,-11.1 29.5,-7.2 C29.5,-7.2 29.5,47.5 29.5,47.5 C29.5,47.5 17.8,51.7 2,51.6 C2,51.6 2,-30.5 2,-30.5z"></path><path fill="rgb(1,1,1)" fill-opacity="0.08" style="display: block;" d=" M19.9,-45.6 C20,-45.7 20,-45.9 19.9,-45.9 C18.2,-46.4 10.9,-48.5 2.5,-48.5 C-5.2,-48.5 -11.8,-46.7 -13.9,-46.1 C-14.200000000000001,-46 -14.2,-45.6 -14,-45.5 C-14,-45.5 -6.6,-42.6 1.5,-42.7 C9.6,-42.800000000000004 19.9,-45.6 19.9,-45.6 C19.9,-45.6 19.9,-45.6 19.9,-45.6z"></path><path fill="rgb(1,1,1)" fill-opacity="0.08" style="display: block;" d=" M-14.5,-31 C-14.5,-30.9 -14.4,-30.8 -14.3,-30.7 C-13,-30.4 -5.6000000000000005,-29.3 3.3,-29.3 C12,-29.3 18.6,-30.4 19.8,-30.7 C19.900000000000002,-30.7 20,-30.8 20,-31 C20,-31 20,-45.4 20,-45.4 C20,-45.6 19.8,-45.7 19.7,-45.7 C18.2,-45.300000000000004 12,-44 3.3,-43.8 C-6.3,-43.599999999999994 -12.6,-45.2 -14.1,-45.7 C-14.299999999999999,-45.800000000000004 -14.5,-45.6 -14.5,-45.4 C-14.5,-45.4 -14.5,-31 -14.5,-31 C-14.5,-31 -14.5,-31 -14.5,-31z"></path></g></g><g style="-webkit-user-select: none;" transform="matrix(1.1500000000000001,0,0,1.1500000000000001,100,100)"><path fill="rgb(91,194,168)" fill-opacity="1" class="bm_fill bm_color_3" style="display: block;" d=" M25,-8.7 C25,-12.6 24.099999999999998,-16.5 22.2,-20 C21.7,-20.9 21.200000000000003,-21.700000000000003 20.6,-22.6 C17.5,-26.900000000000002 13,-29.5 13,-29.5 C13,-29.5 13,-43.375 13,-43.375 C13,-43.375 -2,-43.375 -2,-43.375 C-2,-43.375 -2.5,-43.375 -2.5,-43.375 C-2.5,-43.375 -16,-43.375 -16,-43.375 C-16,-43.375 -16,-29.5 -16,-29.5 C-16,-29.5 -20.5,-26.900000000000002 -23.6,-22.6 C-24.200000000000003,-21.700000000000003 -24.8,-20.9 -25.2,-20 C-27.099999999999998,-16.5 -28,-12.6 -28,-8.7 C-28,-8.7 -28,45 -28,45 C-28,45 -16.5,50 -2.5,50.1 C-2.5,50.1 -2.5,50.1 -2.5,50.1 C-2.4,50.1 -2.3,50.1 -2.3,50.1 C-2.1999999999999997,50.1 -2.1,50.1 -2,50.1 C-2,50.1 -2,50.1 -2,50.1 C13.6,50.1 25,46 25,46 C25,46 25,-8.7 25,-8.7 C25,-8.7 25,-8.7 25,-8.7z"></path><g stroke-linecap="butt" stroke-linejoin="miter" fill-opacity="0" stroke-miterlimit="4" stroke="rgb(96,50,86)" stroke-opacity="1" stroke-width="2.158" class="bm_stroke bm_color_4" style="display: block;"><path d=" M25,-8.7 C25,-12.6 24.099999999999998,-16.5 22.2,-20 C21.7,-20.9 21.200000000000003,-21.700000000000003 20.6,-22.6 C17.5,-26.900000000000002 13,-29.5 13,-29.5 C13,-29.5 13,-43.375 13,-43.375 C13,-43.375 -2,-43.375 -2,-43.375 C-2,-43.375 -2.5,-43.375 -2.5,-43.375 C-2.5,-43.375 -16,-43.375 -16,-43.375 C-16,-43.375 -16,-29.5 -16,-29.5 C-16,-29.5 -20.5,-26.900000000000002 -23.6,-22.6 C-24.200000000000003,-21.700000000000003 -24.8,-20.9 -25.2,-20 C-27.099999999999998,-16.5 -28,-12.6 -28,-8.7 C-28,-8.7 -28,45 -28,45 C-28,45 -16.5,50 -2.5,50.1 C-2.5,50.1 -2.5,50.1 -2.5,50.1 C-2.4,50.1 -2.3,50.1 -2.3,50.1 C-2.1999999999999997,50.1 -2.1,50.1 -2,50.1 C-2,50.1 -2,50.1 -2,50.1 C13.6,50.1 25,46 25,46 C25,46 25,-8.7 25,-8.7 C25,-8.7 25,-8.7 25,-8.7z"></path></g></g><g clip-path="url(#wb4CXsoRt7)" style="-webkit-user-select: none;" transform="matrix(1.1500000000000001,0,0,1.1500000000000001,100,100)" opacity="1"><g style="-webkit-user-select: none;"><path fill="rgb(249,246,235)" fill-opacity="1" style="display: block;" d=" M-28,-10.1 C-28,-10.1 -17.1,-5.8 -2.2,-5.8 C13.8,-5.8 25.1,-10.1 25.1,-10.1 C25.1,-10.1 25.1,29.9 25.1,29.9 C25.1,29.9 14.3,34.2 -2.2,34.2 C-17.1,34.2 -28,29.9 -28,29.9 C-28,29.9 -28,-10.1 -28,-10.1 C-28,-10.1 -28,-10.1 -28,-10.1z"></path><g stroke-linecap="butt" stroke-linejoin="miter" fill-opacity="0" stroke-miterlimit="4" stroke="rgb(96,50,86)" stroke-opacity="1" stroke-width="2" class="bm_stroke bm_color_4" style="display: block;"><path d=" M-28,-10.1 C-28,-10.1 -17.1,-5.8 -2.2,-5.8 C13.8,-5.8 25.1,-10.1 25.1,-10.1 C25.1,-10.1 25.1,29.9 25.1,29.9 C25.1,29.9 14.3,34.2 -2.2,34.2 C-17.1,34.2 -28,29.9 -28,29.9 C-28,29.9 -28,-10.1 -28,-10.1 C-28,-10.1 -28,-10.1 -28,-10.1z"></path></g><path fill="rgb(243,181,115)" fill-opacity="1" class="bm_fill bm_color_2" style="display: block;" d=" M11.5,8.7 C11.5,8.7 11.5,16.7 11.5,16.7 C11.5,16.7 -13.5,16.7 -13.5,16.7 C-13.5,16.7 -13.5,8.7 -13.5,8.7 C-13.5,8.7 11.5,8.7 11.5,8.7z M3,0.2 C3,0.2 3,25.2 3,25.2 C3,25.2 -5,25.2 -5,25.2 C-5,25.2 -5,0.2 -5,0.2 C-5,0.2 3,0.2 3,0.2z"></path></g></g><g clip-path="url(#AHTuTtpG7P)" style="-webkit-user-select: none;" transform="matrix(1.1500000000000001,0,0,1.1500000000000001,100,100)" opacity="1"><g style="-webkit-user-select: none;"><g stroke-linecap="butt" stroke-linejoin="miter" fill-opacity="0" stroke-miterlimit="4" stroke="rgb(96,50,86)" stroke-opacity="1" stroke-width="2" class="bm_stroke bm_color_4" style="display: none;"><path d=" M-28.9981459584427,-12.375 C-28.9981459584427,-12.375 -28.9981459584427,42.5 -28.9981459584427,42.5"></path><path d=" M25.7481459584427,-12.375 C25.7481459584427,-12.375 25.7481459584427,42.5 25.7481459584427,42.5"></path></g></g></g><g style="-webkit-user-select: none;" transform="matrix(1.1500000000000001,0,0,1.1500000000000001,100,100)"><path fill="rgb(249,246,235)" fill-opacity="1" style="display: block;" d=" M15.4,-47.3 C15.5,-47.4 15.5,-47.6 15.4,-47.6 C13.700000000000001,-48.1 6.4,-50 -2,-50 C-9.7,-50 -16.299999999999997,-48.4 -18.4,-47.8 C-18.7,-47.699999999999996 -18.7,-47.400000000000006 -18.5,-47.2 C-18.5,-47.2 -11.1,-44.6 -3,-44.7 C5.1,-44.800000000000004 15.4,-47.3 15.4,-47.3 C15.4,-47.3 15.4,-47.3 15.4,-47.3z"></path><g stroke-linecap="butt" stroke-linejoin="miter" fill-opacity="0" stroke-miterlimit="4" stroke="rgb(96,50,86)" stroke-opacity="1" stroke-width="2" class="bm_stroke bm_color_4" style="display: block;"><path d=" M15.4,-47.3 C15.5,-47.4 15.5,-47.6 15.4,-47.6 C13.700000000000001,-48.1 6.4,-50 -2,-50 C-9.7,-50 -16.299999999999997,-48.4 -18.4,-47.8 C-18.7,-47.699999999999996 -18.7,-47.400000000000006 -18.5,-47.2 C-18.5,-47.2 -11.1,-44.6 -3,-44.7 C5.1,-44.800000000000004 15.4,-47.3 15.4,-47.3 C15.4,-47.3 15.4,-47.3 15.4,-47.3z"></path></g></g><g style="-webkit-user-select: none;" transform="matrix(1.1500000000000001,0,0,1.1500000000000001,100,100)"><path fill="rgb(249,246,235)" fill-opacity="1" style="display: block;" d=" M-19,-33.2 C-19,-33.1 -18.900000000000002,-33 -18.8,-32.9 C-17.5,-32.6 -10.1,-31 -1,-31 C7.800000000000001,-31 14.5,-32.6 15.8,-32.9 C15.9,-32.9 16,-33 16,-33.2 C16,-33.2 16,-46.6 16,-46.6 C16,-46.800000000000004 15.799999999999999,-46.9 15.6,-46.9 C14.1,-46.5 7.800000000000001,-45.2 -1,-45 C-10.7,-44.8 -17.1,-46.4 -18.6,-46.9 C-18.8,-47 -19,-46.800000000000004 -19,-46.6 C-19,-46.6 -19,-33.2 -19,-33.2 C-19,-33.2 -19,-33.2 -19,-33.2z"></path><g stroke-linecap="butt" stroke-linejoin="miter" fill-opacity="0" stroke-miterlimit="4" stroke="rgb(96,50,86)" stroke-opacity="1" stroke-width="2" class="bm_stroke bm_color_4" style="display: block;"><path d=" M-19,-33.2 C-19,-33.1 -18.900000000000002,-33 -18.8,-32.9 C-17.5,-32.6 -10.1,-31 -1,-31 C7.800000000000001,-31 14.5,-32.6 15.8,-32.9 C15.9,-32.9 16,-33 16,-33.2 C16,-33.2 16,-46.6 16,-46.6 C16,-46.800000000000004 15.799999999999999,-46.9 15.6,-46.9 C14.1,-46.5 7.800000000000001,-45.2 -1,-45 C-10.7,-44.8 -17.1,-46.4 -18.6,-46.9 C-18.8,-47 -19,-46.800000000000004 -19,-46.6 C-19,-46.6 -19,-33.2 -19,-33.2 C-19,-33.2 -19,-33.2 -19,-33.2z"></path></g></g><g clip-path="url(#o47qoFxzkb)" style="-webkit-user-select: none;" transform="matrix(1.1500000000000001,0,0,1.1500000000000001,100,100)" opacity="1"><g style="-webkit-user-select: none;"><g stroke-linecap="butt" stroke-linejoin="miter" fill-opacity="0" stroke-miterlimit="4" stroke="rgb(96,50,86)" stroke-opacity="1" stroke-width="2" class="bm_stroke bm_color_4" style="display: block;"><path d=" M11.921999999999997,-28.62 C11.921999999999997,-28.62 11.921999999999997,-48.433 11.921999999999997,-48.433"></path><path d=" M6.921999999999997,-28.308 C6.921999999999997,-28.308 6.921999999999997,-48.12 6.921999999999997,-48.12"></path><path d=" M1.9609999999999985,-28.62 C1.9609999999999985,-28.62 1.9609999999999985,-48.433 1.9609999999999985,-48.433"></path><path d=" M-3.0390000000000015,-28.308 C-3.0390000000000015,-28.308 -3.0390000000000015,-48.12 -3.0390000000000015,-48.12"></path><path d=" M-8,-28.62 C-8,-28.62 -8,-48.433 -8,-48.433"></path><path d=" M-13,-28.308 C-13,-28.308 -13,-48.12 -13,-48.12"></path><path d=" M-18,-28.62 C-18,-28.62 -18,-48.433 -18,-48.433"></path><path d=" M-23,-28.308 C-23,-28.308 -23,-48.12 -23,-48.12"></path><path d=" M-28,-27.87 C-28,-27.87 -28,-47.995 -28,-47.995"></path><path d=" M-35,-47.995 C-35,-47.995 -35,-28.12 -35,-28.12"></path><path d=" M-40,-48.245 C-40,-48.245 -40,-28.808 -40,-28.808"></path><path d=" M-45,-47.745 C-45,-47.745 -45,-29.12 -45,-29.12"></path></g></g></g><g style="-webkit-user-select: none;" transform="matrix(1.1500000000000001,0,0,1.1500000000000001,100,100)"><path fill="rgb(249,246,235)" fill-opacity="1" style="display: block;" d=" M20,-15.9 C20,-15.9 20,-15.8 20,-15.8 C20,-14.8 21.5,-14.8 21.5,-15.8 C21.5,-15.8 21.5,-15.9 21.5,-15.9 C21.5,-16.8 20,-16.8 20,-15.9 C20,-15.9 20,-15.9 20,-15.9 C20,-15.9 20,-15.9 20,-15.9z M15.1,-23.1 C16.8,-21.8 18.1,-20.1 19,-18.1 C19.4,-17.200000000000003 20.799999999999997,-17.6 20.4,-18.5 C19.5,-20.7 18.099999999999998,-22.6 16.2,-24.1 C15.399999999999999,-24.8 14.4,-23.700000000000003 15.1,-23.1 C15.1,-23.1 15.1,-23.1 15.1,-23.1 C15.1,-23.1 15.1,-23.1 15.1,-23.1z"></path></g><g style="-webkit-user-select: none;" transform="matrix(1.1500000000000001,0,0,1.1500000000000001,100,100)"><path fill="rgb(249,246,235)" fill-opacity="1" style="display: block;" d=" M-24.1,43 C-20.400000000000002,44.6 -16.2,45.3 -12.2,46 C-11.299999999999999,46.2 -10.9,44.7 -11.8,44.6 C-15.600000000000001,43.9 -19.7,43.300000000000004 -23.3,41.7 C-24.2,41.400000000000006 -24.900000000000002,42.7 -24.1,43 C-24.1,43 -24.1,43 -24.1,43 C-24.1,43 -24.1,43 -24.1,43z"></path></g><rect width="200" height="200" fill="#ffffff" visibility="visible" transform="matrix(1.1500000000000001,0,0,1.1500000000000001,-15.000000000000014,-15.000000000000014)" opacity="0"></rect></g></g><g transform="matrix(1,0,0,1,4,195)" style="-webkit-user-select: none;"><path fill="rgb(96,50,86)" fill-opacity="1" d=" M36.438,-5.841 C36.648,-5.6240000000000006 36.748,-5.318 36.738,-4.922 C36.738,-4.922 36.738,-4.731 36.738,-4.731 C36.738,-4.731 34.248,-4.731 34.248,-4.731 C34.385,-5.688 34.814,-6.167 35.537,-6.167 C35.928,-6.167 36.228,-6.058 36.438,-5.841z M37.635,-0.231 C38.199,-0.482 38.635,-0.8200000000000001 38.943,-1.245 C38.943,-1.245 37.815,-2.578 37.815,-2.578 C37.376,-2.0309999999999997 36.765,-1.758 35.984,-1.758 C35.510000000000005,-1.758 35.125,-1.8849999999999998 34.827,-2.139 C34.528999999999996,-2.393 34.336,-2.742 34.248,-3.186 C34.248,-3.186 39.155,-3.186 39.155,-3.186 C39.155,-3.186 39.155,-4.146 39.155,-4.146 C39.155,-5.381 38.833000000000006,-6.344 38.188,-7.035 C37.543,-7.726 36.665,-8.071 35.552,-8.071 C34.761,-8.071 34.077,-7.901000000000001 33.501,-7.562 C32.925,-7.223 32.486,-6.743 32.186,-6.123 C31.886,-5.503 31.736,-4.787 31.736,-3.977 C31.736,-3.977 31.736,-3.772 31.736,-3.772 C31.736,-2.61 32.111999999999995,-1.666 32.864,-0.941 C33.616,-0.21599999999999997 34.599,0.146 35.815,0.146 C36.464,0.146 37.071,0.01999999999999999 37.635,-0.231z"></path><g stroke-linecap="butt" stroke-linejoin="miter" fill-opacity="0" stroke-miterlimit="4" stroke="rgb(255,255,255)" stroke-opacity="1" stroke-width="0.01"><path d=" M36.438,-5.841 C36.648,-5.6240000000000006 36.748,-5.318 36.738,-4.922 C36.738,-4.922 36.738,-4.731 36.738,-4.731 C36.738,-4.731 34.248,-4.731 34.248,-4.731 C34.385,-5.688 34.814,-6.167 35.537,-6.167 C35.928,-6.167 36.228,-6.058 36.438,-5.841z"></path><path d=" M37.635,-0.231 C38.199,-0.482 38.635,-0.8200000000000001 38.943,-1.245 C38.943,-1.245 37.815,-2.578 37.815,-2.578 C37.376,-2.0309999999999997 36.765,-1.758 35.984,-1.758 C35.510000000000005,-1.758 35.125,-1.8849999999999998 34.827,-2.139 C34.528999999999996,-2.393 34.336,-2.742 34.248,-3.186 C34.248,-3.186 39.155,-3.186 39.155,-3.186 C39.155,-3.186 39.155,-4.146 39.155,-4.146 C39.155,-5.381 38.833000000000006,-6.344 38.188,-7.035 C37.543,-7.726 36.665,-8.071 35.552,-8.071 C34.761,-8.071 34.077,-7.901000000000001 33.501,-7.562 C32.925,-7.223 32.486,-6.743 32.186,-6.123 C31.886,-5.503 31.736,-4.787 31.736,-3.977 C31.736,-3.977 31.736,-3.772 31.736,-3.772 C31.736,-2.61 32.111999999999995,-1.666 32.864,-0.941 C33.616,-0.21599999999999997 34.599,0.146 35.815,0.146 C36.464,0.146 37.071,0.01999999999999999 37.635,-0.231z"></path></g><path fill="rgb(96,50,86)" fill-opacity="1" d=" M30.461,-11.25 C30.461,-11.25 27.986,-11.25 27.986,-11.25 C27.986,-11.25 27.986,0 27.986,0 C27.986,0 30.461,0 30.461,0 C30.461,0 30.461,-11.25 30.461,-11.25z"></path><g stroke-linecap="butt" stroke-linejoin="miter" fill-opacity="0" stroke-miterlimit="4" stroke="rgb(255,255,255)" stroke-opacity="1" stroke-width="0.01"><path d=" M30.461,-11.25 C30.461,-11.25 27.986,-11.25 27.986,-11.25 C27.986,-11.25 27.986,0 27.986,0 C27.986,0 30.461,0 30.461,0 C30.461,0 30.461,-11.25 30.461,-11.25z"></path></g><path fill="rgb(96,50,86)" fill-opacity="1" d=" M23.115,-9.895 C23.115,-9.895 23.115,-7.925 23.115,-7.925 C23.115,-7.925 22.104,-7.925 22.104,-7.925 C22.104,-7.925 22.104,-6.211 22.104,-6.211 C22.104,-6.211 23.115,-6.211 23.115,-6.211 C23.115,-6.211 23.115,-2.278 23.115,-2.278 C23.115,-1.4620000000000002 23.317999999999998,-0.8540000000000001 23.723,-0.454 C24.128,-0.05399999999999999 24.755,0.146 25.605,0.146 C26.088,0.146 26.553,0.07599999999999998 26.997,-0.066 C26.997,-0.066 26.997,-1.831 26.997,-1.831 C26.831,-1.802 26.626,-1.787 26.382,-1.787 C26.065,-1.787 25.852,-1.846 25.745,-1.963 C25.638,-2.08 25.583,-2.287 25.583,-2.585 C25.583,-2.585 25.583,-6.211 25.583,-6.211 C25.583,-6.211 26.887,-6.211 26.887,-6.211 C26.887,-6.211 26.887,-7.925 26.887,-7.925 C26.887,-7.925 25.583,-7.925 25.583,-7.925 C25.583,-7.925 25.583,-9.895 25.583,-9.895 C25.583,-9.895 23.115,-9.895 23.115,-9.895z"></path><g stroke-linecap="butt" stroke-linejoin="miter" fill-opacity="0" stroke-miterlimit="4" stroke="rgb(255,255,255)" stroke-opacity="1" stroke-width="0.01"><path d=" M23.115,-9.895 C23.115,-9.895 23.115,-7.925 23.115,-7.925 C23.115,-7.925 22.104,-7.925 22.104,-7.925 C22.104,-7.925 22.104,-6.211 22.104,-6.211 C22.104,-6.211 23.115,-6.211 23.115,-6.211 C23.115,-6.211 23.115,-2.278 23.115,-2.278 C23.115,-1.4620000000000002 23.317999999999998,-0.8540000000000001 23.723,-0.454 C24.128,-0.05399999999999999 24.755,0.146 25.605,0.146 C26.088,0.146 26.553,0.07599999999999998 26.997,-0.066 C26.997,-0.066 26.997,-1.831 26.997,-1.831 C26.831,-1.802 26.626,-1.787 26.382,-1.787 C26.065,-1.787 25.852,-1.846 25.745,-1.963 C25.638,-2.08 25.583,-2.287 25.583,-2.585 C25.583,-2.585 25.583,-6.211 25.583,-6.211 C25.583,-6.211 26.887,-6.211 26.887,-6.211 C26.887,-6.211 26.887,-7.925 26.887,-7.925 C26.887,-7.925 25.583,-7.925 25.583,-7.925 C25.583,-7.925 25.583,-9.895 25.583,-9.895 C25.583,-9.895 23.115,-9.895 23.115,-9.895z"></path></g><path fill="rgb(96,50,86)" fill-opacity="1" d=" M17.966,-9.895 C17.966,-9.895 17.966,-7.925 17.966,-7.925 C17.966,-7.925 16.956,-7.925 16.956,-7.925 C16.956,-7.925 16.956,-6.211 16.956,-6.211 C16.956,-6.211 17.966,-6.211 17.966,-6.211 C17.966,-6.211 17.966,-2.278 17.966,-2.278 C17.966,-1.4620000000000002 18.169,-0.8540000000000001 18.574,-0.454 C18.979000000000003,-0.05399999999999999 19.607,0.146 20.457,0.146 C20.94,0.146 21.404,0.07599999999999998 21.848,-0.066 C21.848,-0.066 21.848,-1.831 21.848,-1.831 C21.682,-1.802 21.477,-1.787 21.233,-1.787 C20.916,-1.787 20.703,-1.846 20.596,-1.963 C20.489,-2.08 20.435,-2.287 20.435,-2.585 C20.435,-2.585 20.435,-6.211 20.435,-6.211 C20.435,-6.211 21.738,-6.211 21.738,-6.211 C21.738,-6.211 21.738,-7.925 21.738,-7.925 C21.738,-7.925 20.435,-7.925 20.435,-7.925 C20.435,-7.925 20.435,-9.895 20.435,-9.895 C20.435,-9.895 17.966,-9.895 17.966,-9.895z"></path><g stroke-linecap="butt" stroke-linejoin="miter" fill-opacity="0" stroke-miterlimit="4" stroke="rgb(255,255,255)" stroke-opacity="1" stroke-width="0.01"><path d=" M17.966,-9.895 C17.966,-9.895 17.966,-7.925 17.966,-7.925 C17.966,-7.925 16.956,-7.925 16.956,-7.925 C16.956,-7.925 16.956,-6.211 16.956,-6.211 C16.956,-6.211 17.966,-6.211 17.966,-6.211 C17.966,-6.211 17.966,-2.278 17.966,-2.278 C17.966,-1.4620000000000002 18.169,-0.8540000000000001 18.574,-0.454 C18.979000000000003,-0.05399999999999999 19.607,0.146 20.457,0.146 C20.94,0.146 21.404,0.07599999999999998 21.848,-0.066 C21.848,-0.066 21.848,-1.831 21.848,-1.831 C21.682,-1.802 21.477,-1.787 21.233,-1.787 C20.916,-1.787 20.703,-1.846 20.596,-1.963 C20.489,-2.08 20.435,-2.287 20.435,-2.585 C20.435,-2.585 20.435,-6.211 20.435,-6.211 C20.435,-6.211 21.738,-6.211 21.738,-6.211 C21.738,-6.211 21.738,-7.925 21.738,-7.925 C21.738,-7.925 20.435,-7.925 20.435,-7.925 C20.435,-7.925 20.435,-9.895 20.435,-9.895 C20.435,-9.895 17.966,-9.895 17.966,-9.895z"></path></g><path fill="rgb(96,50,86)" fill-opacity="1" d=" M11.301,-4.329 C11.369,-5.555 11.817,-6.167 12.642,-6.167 C13.549999999999999,-6.167 14.004,-5.457 14.004,-4.036 C14.004,-4.036 14.004,-3.787 14.004,-3.787 C13.984,-2.434 13.535,-1.758 12.656,-1.758 C12.207,-1.758 11.866999999999999,-1.9289999999999998 11.638,-2.271 C11.408,-2.613 11.294,-3.1500000000000004 11.294,-3.882 C11.294,-3.882 11.301,-4.329 11.301,-4.329z M8.833,-3.618 C8.887,-2.461 9.255,-1.544 9.939,-0.868 C10.623,-0.19199999999999995 11.528,0.146 12.656,0.146 C13.828000000000001,0.146 14.757,-0.21599999999999997 15.443,-0.941 C16.129,-1.666 16.472,-2.6470000000000002 16.472,-3.882 C16.472,-3.882 16.472,-3.97 16.472,-3.97 C16.472,-5.235 16.131,-6.234 15.447,-6.969 C14.763,-7.704000000000001 13.828999999999999,-8.071 12.642,-8.071 C11.866,-8.071 11.189,-7.905 10.613,-7.573 C10.036999999999999,-7.2410000000000005 9.595,-6.767 9.287,-6.149 C8.979000000000001,-5.531 8.826,-4.827 8.826,-4.036 C8.826,-4.036 8.833,-3.618 8.833,-3.618z"></path><g stroke-linecap="butt" stroke-linejoin="miter" fill-opacity="0" stroke-miterlimit="4" stroke="rgb(255,255,255)" stroke-opacity="1" stroke-width="0.01"><path d=" M11.301,-4.329 C11.369,-5.555 11.817,-6.167 12.642,-6.167 C13.549999999999999,-6.167 14.004,-5.457 14.004,-4.036 C14.004,-4.036 14.004,-3.787 14.004,-3.787 C13.984,-2.434 13.535,-1.758 12.656,-1.758 C12.207,-1.758 11.866999999999999,-1.9289999999999998 11.638,-2.271 C11.408,-2.613 11.294,-3.1500000000000004 11.294,-3.882 C11.294,-3.882 11.301,-4.329 11.301,-4.329z"></path><path d=" M8.833,-3.618 C8.887,-2.461 9.255,-1.544 9.939,-0.868 C10.623,-0.19199999999999995 11.528,0.146 12.656,0.146 C13.828000000000001,0.146 14.757,-0.21599999999999997 15.443,-0.941 C16.129,-1.666 16.472,-2.6470000000000002 16.472,-3.882 C16.472,-3.882 16.472,-3.97 16.472,-3.97 C16.472,-5.235 16.131,-6.234 15.447,-6.969 C14.763,-7.704000000000001 13.828999999999999,-8.071 12.642,-8.071 C11.866,-8.071 11.189,-7.905 10.613,-7.573 C10.036999999999999,-7.2410000000000005 9.595,-6.767 9.287,-6.149 C8.979000000000001,-5.531 8.826,-4.827 8.826,-4.036 C8.826,-4.036 8.833,-3.618 8.833,-3.618z"></path></g><path fill="rgb(96,50,86)" fill-opacity="1" d=" M5.457,-2.606 C5.301,-2.04 4.932,-1.758 4.351,-1.758 C3.7800000000000002,-1.758 3.389,-1.968 3.179,-2.387 C3.179,-2.387 3.179,-5.531 3.179,-5.531 C3.3939999999999997,-5.955 3.7790000000000004,-6.167 4.336,-6.167 C4.756,-6.167 5.066999999999999,-6.005 5.27,-5.681 C5.473,-5.357 5.574,-4.814 5.574,-4.054 C5.574,-3.367 5.535,-2.884 5.457,-2.606z M8.049,-4.021 C8.049,-5.305 7.781,-6.301 7.244,-7.009 C6.707,-7.7170000000000005 5.944,-8.071 4.958,-8.071 C4.23,-8.071 3.638,-7.8100000000000005 3.179,-7.288 C3.179,-7.288 3.179,-11.25 3.179,-11.25 C3.179,-11.25 0.71,-11.25 0.71,-11.25 C0.71,-11.25 0.71,0 0.71,0 C0.71,0 2.922,0 2.922,0 C2.922,0 3.025,-0.813 3.025,-0.813 C3.518,-0.17299999999999993 4.167,0.146 4.973,0.146 C5.95,0.146 6.707,-0.20300000000000007 7.244,-0.901 C7.781,-1.599 8.049,-2.597 8.049,-3.896 C8.049,-3.896 8.049,-4.021 8.049,-4.021z"></path><g stroke-linecap="butt" stroke-linejoin="miter" fill-opacity="0" stroke-miterlimit="4" stroke="rgb(255,255,255)" stroke-opacity="1" stroke-width="0.01"><path d=" M5.457,-2.606 C5.301,-2.04 4.932,-1.758 4.351,-1.758 C3.7800000000000002,-1.758 3.389,-1.968 3.179,-2.387 C3.179,-2.387 3.179,-5.531 3.179,-5.531 C3.3939999999999997,-5.955 3.7790000000000004,-6.167 4.336,-6.167 C4.756,-6.167 5.066999999999999,-6.005 5.27,-5.681 C5.473,-5.357 5.574,-4.814 5.574,-4.054 C5.574,-3.367 5.535,-2.884 5.457,-2.606z"></path><path d=" M8.049,-4.021 C8.049,-5.305 7.781,-6.301 7.244,-7.009 C6.707,-7.7170000000000005 5.944,-8.071 4.958,-8.071 C4.23,-8.071 3.638,-7.8100000000000005 3.179,-7.288 C3.179,-7.288 3.179,-11.25 3.179,-11.25 C3.179,-11.25 0.71,-11.25 0.71,-11.25 C0.71,-11.25 0.71,0 0.71,0 C0.71,0 2.922,0 2.922,0 C2.922,0 3.025,-0.813 3.025,-0.813 C3.518,-0.17299999999999993 4.167,0.146 4.973,0.146 C5.95,0.146 6.707,-0.20300000000000007 7.244,-0.901 C7.781,-1.599 8.049,-2.597 8.049,-3.896 C8.049,-3.896 8.049,-4.021 8.049,-4.021z"></path></g></g></g></svg>