<svg xmlns="http://www.w3.org/2000/svg" width="200" height="200" viewBox="0 0 200 200" preserveAspectRatio="xMidYMid meet" style="width: 100%; height: 100%; transform: translate3d(0px, 0px, 0px); transform-origin: 0px 0px 0px;"><defs><clipPath id="animationMask_eUF6ssBryj"><rect width="200" height="200" x="0" y="0"></rect></clipPath></defs><g clip-path="url(#animationMask_eUF6ssBryj)" style="-webkit-user-select: none;"><g class="bm_icon_hoverable" style="-webkit-user-select: none;" opacity="1"><g class="bm_shadow_hoverable" style="-webkit-user-select: none;"><g style="-webkit-user-select: none;" transform="matrix(1,0,0,1,100,100)"><path fill="rgb(1,1,1)" fill-opacity="0.08" style="display: block;" d=" M-21.2,36.9 C-21.2,36.9 -21.2,36.9 -21.2,36.9 C-26.6,38.5 -32.3,35.3 -33.9,29.9 C-33.9,29.9 -43.3,-2.3 -43.3,-2.3 C-44.9,-7.7 -41.699999999999996,-13.4 -36.3,-15 C-36.3,-15 -36.3,-15 -36.3,-15 C-30.9,-16.6 -25.200000000000003,-13.4 -23.6,-8 C-23.6,-8 -14.2,24.2 -14.2,24.2 C-12.7,29.6 -15.799999999999999,35.3 -21.2,36.9 C-21.2,36.9 -21.2,36.9 -21.2,36.9z"></path><path fill="rgb(1,1,1)" fill-opacity="0.08" style="display: block;" d=" M-3.7,-37.6 C5.467999999999999,-37.6 12.9,-30.168 12.9,-21 C12.9,-11.832 5.467999999999999,-4.4 -3.7,-4.4 C-12.867999999999999,-4.4 -20.3,-11.832 -20.3,-21 C-20.3,-30.168 -12.867999999999999,-37.6 -3.7,-37.6z"></path><path fill="rgb(1,1,1)" fill-opacity="0.08" style="display: block;" d=" M5.9,27.4 C5.9,27.4 5.9,27.4 5.9,27.4 C3.0000000000000004,23.099999999999998 4.1000000000000005,17.3 8.4,14.3 C8.4,14.3 33.8,-3 33.8,-3 C38.099999999999994,-5.9 43.9,-4.8 46.9,-0.5 C46.9,-0.5 46.9,-0.5 46.9,-0.5 C49.8,3.8 48.699999999999996,9.6 44.4,12.6 C44.4,12.6 19,29.9 19,29.9 C14.6,32.8 8.8,31.7 5.9,27.4 C5.9,27.4 5.9,27.4 5.9,27.4z"></path></g></g><g style="-webkit-user-select: none;" transform="matrix(1,0,0,1,100,100)"><path fill="rgb(249,246,235)" fill-opacity="1" style="display: block;" d=" M3.9,24.4 C3.9,24.4 3.9,24.4 3.9,24.4 C1,20.099999999999998 2.1000000000000005,14.3 6.4,11.3 C6.4,11.3 31.8,-6 31.8,-6 C36.1,-8.9 41.9,-7.8 44.9,-3.5 C44.9,-3.5 44.9,-3.5 44.9,-3.5 C47.8,0.7999999999999998 46.699999999999996,6.6 42.4,9.6 C42.4,9.6 17,26.9 17,26.9 C12.6,29.799999999999997 6.8,28.7 3.9,24.4 C3.9,24.4 3.9,24.4 3.9,24.4z"></path></g><g style="-webkit-user-select: none;" transform="matrix(1,0,0,1,100,100)"><path fill="rgb(91,194,168)" fill-opacity="1" class="bm_fill bm_color_3" style="display: block;" d=" M18.3,3.2 C18.3,3.2 5.9,11.7 5.9,11.7 C1.8000000000000007,14.5 0.8000000000000003,20.3 3.7,24.6 C3.7,24.6 3.7,24.6 3.7,24.6 C6.6,28.900000000000002 12.4,30.1 16.5,27.3 C16.5,27.3 28.9,18.8 28.9,18.8 C28.9,18.8 18.3,3.2 18.3,3.2 C18.3,3.2 18.3,3.2 18.3,3.2z"></path></g><g style="-webkit-user-select: none;" transform="matrix(1,0,0,1,100,100)"><g stroke-linecap="butt" stroke-linejoin="miter" fill-opacity="0" stroke-miterlimit="4" stroke="rgb(96,50,86)" stroke-opacity="1" stroke-width="1.835" class="bm_stroke bm_color_4" style="display: block;"><path d=" M3.9,24.4 C3.9,24.4 3.9,24.4 3.9,24.4 C1,20.099999999999998 2.1000000000000005,14.3 6.4,11.3 C6.4,11.3 31.8,-6 31.8,-6 C36.1,-8.9 41.9,-7.8 44.9,-3.5 C44.9,-3.5 44.9,-3.5 44.9,-3.5 C47.8,0.7999999999999998 46.699999999999996,6.6 42.4,9.6 C42.4,9.6 17,26.9 17,26.9 C12.6,29.799999999999997 6.8,28.7 3.9,24.4 C3.9,24.4 3.9,24.4 3.9,24.4z"></path><path d=" M18.3,3.2 C18.3,3.2 28.6,18.4 28.6,18.4"></path></g></g><g style="-webkit-user-select: none;" transform="matrix(1,0,0,1,100,100)"><path fill="rgb(249,246,235)" fill-opacity="1" style="display: block;" d=" M11,26 C12.3,26.1 13.5,25.8 14.6,25.1 C15.4,24.6 14.700000000000001,23.3 13.8,23.8 C12.9,24.3 12,24.5 10.9,24.5 C10,24.5 10,26 11,26 C11,26 11,26 11,26 C11,26 11,26 11,26z"></path></g><g style="-webkit-user-select: none;" transform="matrix(1,0,0,1,100,100)"><path fill="rgb(249,246,235)" fill-opacity="1" style="display: block;" d=" M-6.6,-37 C1.684000000000001,-37 8.4,-30.284 8.4,-22 C8.4,-13.716 1.684000000000001,-7 -6.6,-7 C-14.884,-7 -21.6,-13.716 -21.6,-22 C-21.6,-30.284 -14.884,-37 -6.6,-37z"></path><g stroke-linecap="butt" stroke-linejoin="miter" fill-opacity="0" stroke-miterlimit="4" stroke="rgb(96,50,86)" stroke-opacity="1" stroke-width="2" class="bm_stroke bm_color_4" style="display: block;"><path d=" M-6.6,-37 C1.684000000000001,-37 8.4,-30.284 8.4,-22 C8.4,-13.716 1.684000000000001,-7 -6.6,-7 C-14.884,-7 -21.6,-13.716 -21.6,-22 C-21.6,-30.284 -14.884,-37 -6.6,-37z"></path></g></g><g style="-webkit-user-select: none;" transform="matrix(1,0,0,1,100,100)"><path fill="rgb(249,246,235)" fill-opacity="1" style="display: block;" d=" M-10.4,-37.8 C-2.1159999999999997,-37.8 4.6,-31.084000000000003 4.6,-22.8 C4.6,-14.516 -2.1159999999999997,-7.8 -10.4,-7.8 C-18.684,-7.8 -25.4,-14.516 -25.4,-22.8 C-25.4,-31.084000000000003 -18.684,-37.8 -10.4,-37.8z"></path><g stroke-linecap="butt" stroke-linejoin="miter" fill-opacity="0" stroke-miterlimit="4" stroke="rgb(96,50,86)" stroke-opacity="1" stroke-width="2" class="bm_stroke bm_color_4" style="display: block;"><path d=" M-10.4,-37.8 C-2.1159999999999997,-37.8 4.6,-31.084000000000003 4.6,-22.8 C4.6,-14.516 -2.1159999999999997,-7.8 -10.4,-7.8 C-18.684,-7.8 -25.4,-14.516 -25.4,-22.8 C-25.4,-31.084000000000003 -18.684,-37.8 -10.4,-37.8z"></path></g></g><g style="-webkit-user-select: none;" transform="matrix(1,0,0,1,100,100)"><g stroke-linecap="butt" stroke-linejoin="miter" fill-opacity="0" stroke-miterlimit="4" stroke="rgb(96,50,86)" stroke-opacity="1" stroke-width="2" class="bm_stroke bm_color_4" style="display: block;"><path d=" M-12,-37 C-12,-37 -12,-8 -12,-8"></path><path d=" M-8,-38 C-8,-38 -8,-8 -8,-8"></path></g></g><g style="-webkit-user-select: none;" transform="matrix(1,0,0,1,92,100)"><path fill="rgb(249,246,235)" fill-opacity="1" style="display: block;" d=" M-25.2,35.9 C-25.2,35.9 -25.2,35.9 -25.2,35.9 C-30.6,37.5 -36.3,34.3 -37.9,28.9 C-37.9,28.9 -47.3,-3.3 -47.3,-3.3 C-48.9,-8.7 -45.699999999999996,-14.4 -40.3,-16 C-40.3,-16 -40.3,-16 -40.3,-16 C-34.9,-17.6 -29.200000000000003,-14.4 -27.6,-9 C-27.6,-9 -18.2,23.2 -18.2,23.2 C-16.7,28.6 -19.799999999999997,34.3 -25.2,35.9 C-25.2,35.9 -25.2,35.9 -25.2,35.9z"></path><path fill="rgb(242,107,83)" fill-opacity="1" class="bm_fill bm_color_1" style="display: block;" d=" M-42.3,13.8 C-42.3,13.8 -37.7,29.5 -37.7,29.5 C-36.2,34.7 -30.5,37.7 -25.1,36.1 C-25.1,36.1 -25.1,36.1 -25.1,36.1 C-19.700000000000003,34.5 -16.5,29 -18,23.8 C-18,23.8 -22.6,8.1 -22.6,8.1 C-22.6,8.1 -42.3,13.8 -42.3,13.8 C-42.3,13.8 -42.3,13.8 -42.3,13.8z"></path></g><g style="-webkit-user-select: none;" transform="matrix(1,0,0,1,92,100)"><g stroke-linecap="butt" stroke-linejoin="miter" fill-opacity="0" stroke-miterlimit="4" stroke="rgb(96,50,86)" stroke-opacity="1" stroke-width="2" class="bm_stroke bm_color_4" style="display: block;"><path d=" M-25.2,35.9 C-25.2,35.9 -25.2,35.9 -25.2,35.9 C-30.6,37.5 -36.3,34.3 -37.9,28.9 C-37.9,28.9 -47.3,-3.3 -47.3,-3.3 C-48.9,-8.7 -45.699999999999996,-14.4 -40.3,-16 C-40.3,-16 -40.3,-16 -40.3,-16 C-34.9,-17.6 -29.200000000000003,-14.4 -27.6,-9 C-27.6,-9 -18.2,23.2 -18.2,23.2 C-16.7,28.6 -19.799999999999997,34.3 -25.2,35.9 C-25.2,35.9 -25.2,35.9 -25.2,35.9z"></path><path d=" M-42.3,13.8 C-42.3,13.8 -23.1,8.2 -23.1,8.2"></path></g></g><g style="-webkit-user-select: none;" transform="matrix(1,0,0,1,92,100)"><path fill="rgb(249,246,235)" fill-opacity="1" style="display: block;" d=" M-35.8,26.8 C-35.099999999999994,29.5 -33.2,31.8 -30.6,33 C-29.700000000000003,33.4 -29,32.1 -29.8,31.7 C-32,30.7 -33.599999999999994,28.799999999999997 -34.3,26.4 C-34.599999999999994,25.5 -36.099999999999994,25.900000000000002 -35.8,26.8 C-35.8,26.8 -35.8,26.8 -35.8,26.8 C-35.8,26.8 -35.8,26.8 -35.8,26.8z"></path></g><rect width="200" height="200" fill="#ffffff" visibility="visible" transform="matrix(1,0,0,1,0,0)" opacity="0"></rect></g><g transform="matrix(1,0,0,1,4,195)" style="-webkit-user-select: none;"><path fill="rgb(96,50,86)" fill-opacity="1" d=" M25.404,-1.692 C25.236,-1.555 24.983,-1.487 24.646,-1.487 C24.28,-1.487 23.979000000000003,-1.572 23.745,-1.74 C23.511,-1.908 23.389000000000003,-2.1759999999999997 23.379,-2.542 C23.379,-2.542 21.072,-2.542 21.072,-2.542 C21.072,-2.078 21.221,-1.636 21.519,-1.216 C21.816999999999997,-0.796 22.232,-0.46399999999999997 22.764,-0.22 C23.296,0.023999999999999994 23.901,0.146 24.58,0.146 C25.599999999999998,0.146 26.432000000000002,-0.08100000000000002 27.074,-0.535 C27.716,-0.9890000000000001 28.037,-1.577 28.037,-2.3 C28.037,-3.359 27.441,-4.093999999999999 26.25,-4.504 C25.894,-4.6259999999999994 25.48,-4.731 25.009,-4.819 C24.538,-4.907 24.194,-5.019 23.979,-5.156 C23.764,-5.292999999999999 23.657,-5.471 23.657,-5.691 C23.657,-5.906 23.745,-6.085 23.921,-6.229 C24.096999999999998,-6.373 24.314,-6.445 24.573,-6.445 C25.242,-6.445 25.576,-6.128 25.576,-5.493 C25.576,-5.493 28.052,-5.493 28.052,-5.493 C28.052,-6.264 27.735000000000003,-6.887 27.1,-7.361 C26.465,-7.835 25.625,-8.071 24.58,-8.071 C23.607999999999997,-8.071 22.823,-7.836 22.222,-7.365 C21.621000000000002,-6.894 21.321,-6.294 21.321,-5.566 C21.321,-5.156 21.426,-4.792 21.636,-4.475 C21.846,-4.1579999999999995 22.151,-3.888 22.551,-3.666 C22.950999999999997,-3.444 23.46,-3.264 24.075,-3.127 C24.689999999999998,-2.9899999999999998 25.107000000000003,-2.859 25.327,-2.732 C25.547,-2.6050000000000004 25.657,-2.437 25.657,-2.227 C25.657,-2.0069999999999997 25.572,-1.829 25.404,-1.692z"></path><g stroke-linecap="butt" stroke-linejoin="miter" fill-opacity="0" stroke-miterlimit="4" stroke="rgb(255,255,255)" stroke-opacity="1" stroke-width="0.01"><path d=" M25.404,-1.692 C25.236,-1.555 24.983,-1.487 24.646,-1.487 C24.28,-1.487 23.979000000000003,-1.572 23.745,-1.74 C23.511,-1.908 23.389000000000003,-2.1759999999999997 23.379,-2.542 C23.379,-2.542 21.072,-2.542 21.072,-2.542 C21.072,-2.078 21.221,-1.636 21.519,-1.216 C21.816999999999997,-0.796 22.232,-0.46399999999999997 22.764,-0.22 C23.296,0.023999999999999994 23.901,0.146 24.58,0.146 C25.599999999999998,0.146 26.432000000000002,-0.08100000000000002 27.074,-0.535 C27.716,-0.9890000000000001 28.037,-1.577 28.037,-2.3 C28.037,-3.359 27.441,-4.093999999999999 26.25,-4.504 C25.894,-4.6259999999999994 25.48,-4.731 25.009,-4.819 C24.538,-4.907 24.194,-5.019 23.979,-5.156 C23.764,-5.292999999999999 23.657,-5.471 23.657,-5.691 C23.657,-5.906 23.745,-6.085 23.921,-6.229 C24.096999999999998,-6.373 24.314,-6.445 24.573,-6.445 C25.242,-6.445 25.576,-6.128 25.576,-5.493 C25.576,-5.493 28.052,-5.493 28.052,-5.493 C28.052,-6.264 27.735000000000003,-6.887 27.1,-7.361 C26.465,-7.835 25.625,-8.071 24.58,-8.071 C23.607999999999997,-8.071 22.823,-7.836 22.222,-7.365 C21.621000000000002,-6.894 21.321,-6.294 21.321,-5.566 C21.321,-5.156 21.426,-4.792 21.636,-4.475 C21.846,-4.1579999999999995 22.151,-3.888 22.551,-3.666 C22.950999999999997,-3.444 23.46,-3.264 24.075,-3.127 C24.689999999999998,-2.9899999999999998 25.107000000000003,-2.859 25.327,-2.732 C25.547,-2.6050000000000004 25.657,-2.437 25.657,-2.227 C25.657,-2.0069999999999997 25.572,-1.829 25.404,-1.692z"></path></g><path fill="rgb(96,50,86)" fill-opacity="1" d=" M19.988,-11.25 C19.988,-11.25 17.512,-11.25 17.512,-11.25 C17.512,-11.25 17.512,0 17.512,0 C17.512,0 19.988,0 19.988,0 C19.988,0 19.988,-11.25 19.988,-11.25z"></path><g stroke-linecap="butt" stroke-linejoin="miter" fill-opacity="0" stroke-miterlimit="4" stroke="rgb(255,255,255)" stroke-opacity="1" stroke-width="0.01"><path d=" M19.988,-11.25 C19.988,-11.25 17.512,-11.25 17.512,-11.25 C17.512,-11.25 17.512,0 17.512,0 C17.512,0 19.988,0 19.988,0 C19.988,0 19.988,-11.25 19.988,-11.25z"></path></g><path fill="rgb(96,50,86)" fill-opacity="1" d=" M15.864,-11.25 C15.864,-11.25 13.389,-11.25 13.389,-11.25 C13.389,-11.25 13.389,0 13.389,0 C13.389,0 15.864,0 15.864,0 C15.864,0 15.864,-11.25 15.864,-11.25z"></path><g stroke-linecap="butt" stroke-linejoin="miter" fill-opacity="0" stroke-miterlimit="4" stroke="rgb(255,255,255)" stroke-opacity="1" stroke-width="0.01"><path d=" M15.864,-11.25 C15.864,-11.25 13.389,-11.25 13.389,-11.25 C13.389,-11.25 13.389,0 13.389,0 C13.389,0 15.864,0 15.864,0 C15.864,0 15.864,-11.25 15.864,-11.25z"></path></g><path fill="rgb(96,50,86)" fill-opacity="1" d=" M9.5,-9.106 C9.754,-8.879999999999999 10.083,-8.767 10.488,-8.767 C10.892999999999999,-8.767 11.223,-8.879999999999999 11.477,-9.106 C11.731,-9.332 11.858,-9.622000000000002 11.858,-9.976 C11.858,-10.33 11.731,-10.619 11.477,-10.845 C11.223,-11.071000000000002 10.892999999999999,-11.184 10.488,-11.184 C10.083,-11.184 9.754,-11.071000000000002 9.5,-10.845 C9.246,-10.619 9.119,-10.33 9.119,-9.976 C9.119,-9.622000000000002 9.246,-9.332 9.5,-9.106z M11.741,-7.925 C11.741,-7.925 9.265,-7.925 9.265,-7.925 C9.265,-7.925 9.265,0 9.265,0 C9.265,0 11.741,0 11.741,0 C11.741,0 11.741,-7.925 11.741,-7.925z"></path><g stroke-linecap="butt" stroke-linejoin="miter" fill-opacity="0" stroke-miterlimit="4" stroke="rgb(255,255,255)" stroke-opacity="1" stroke-width="0.01"><path d=" M9.5,-9.106 C9.754,-8.879999999999999 10.083,-8.767 10.488,-8.767 C10.892999999999999,-8.767 11.223,-8.879999999999999 11.477,-9.106 C11.731,-9.332 11.858,-9.622000000000002 11.858,-9.976 C11.858,-10.33 11.731,-10.619 11.477,-10.845 C11.223,-11.071000000000002 10.892999999999999,-11.184 10.488,-11.184 C10.083,-11.184 9.754,-11.071000000000002 9.5,-10.845 C9.246,-10.619 9.119,-10.33 9.119,-9.976 C9.119,-9.622000000000002 9.246,-9.332 9.5,-9.106z"></path><path d=" M11.741,-7.925 C11.741,-7.925 9.265,-7.925 9.265,-7.925 C9.265,-7.925 9.265,0 9.265,0 C9.265,0 11.741,0 11.741,0 C11.741,0 11.741,-7.925 11.741,-7.925z"></path></g><path fill="rgb(96,50,86)" fill-opacity="1" d=" M5.581,-3.794 C5.557,-2.4370000000000003 5.151,-1.758 4.365,-1.758 C3.789,-1.758 3.3939999999999997,-1.9779999999999998 3.179,-2.417 C3.179,-2.417 3.179,-5.537 3.179,-5.537 C3.3739999999999997,-5.957 3.765,-6.167 4.351,-6.167 C5.171,-6.167 5.581,-5.4639999999999995 5.581,-4.058 C5.581,-4.058 5.581,-3.794 5.581,-3.794z M8.049,-4.021 C8.049,-5.281 7.778,-6.271 7.236,-6.991 C6.694,-7.710999999999999 5.9350000000000005,-8.071 4.958,-8.071 C4.186,-8.071 3.5650000000000004,-7.7780000000000005 3.091,-7.192 C3.091,-7.192 3.018,-7.925 3.018,-7.925 C3.018,-7.925 0.71,-7.925 0.71,-7.925 C0.71,-7.925 0.71,3.047 0.71,3.047 C0.71,3.047 3.179,3.047 3.179,3.047 C3.179,3.047 3.179,-0.652 3.179,-0.652 C3.6479999999999997,-0.12 4.245,0.146 4.973,0.146 C5.915,0.146 6.664,-0.22099999999999997 7.218,-0.956 C7.772,-1.6909999999999998 8.049,-2.674 8.049,-3.904 C8.049,-3.904 8.049,-4.021 8.049,-4.021z"></path><g stroke-linecap="butt" stroke-linejoin="miter" fill-opacity="0" stroke-miterlimit="4" stroke="rgb(255,255,255)" stroke-opacity="1" stroke-width="0.01"><path d=" M5.581,-3.794 C5.557,-2.4370000000000003 5.151,-1.758 4.365,-1.758 C3.789,-1.758 3.3939999999999997,-1.9779999999999998 3.179,-2.417 C3.179,-2.417 3.179,-5.537 3.179,-5.537 C3.3739999999999997,-5.957 3.765,-6.167 4.351,-6.167 C5.171,-6.167 5.581,-5.4639999999999995 5.581,-4.058 C5.581,-4.058 5.581,-3.794 5.581,-3.794z"></path><path d=" M8.049,-4.021 C8.049,-5.281 7.778,-6.271 7.236,-6.991 C6.694,-7.710999999999999 5.9350000000000005,-8.071 4.958,-8.071 C4.186,-8.071 3.5650000000000004,-7.7780000000000005 3.091,-7.192 C3.091,-7.192 3.018,-7.925 3.018,-7.925 C3.018,-7.925 0.71,-7.925 0.71,-7.925 C0.71,-7.925 0.71,3.047 0.71,3.047 C0.71,3.047 3.179,3.047 3.179,3.047 C3.179,3.047 3.179,-0.652 3.179,-0.652 C3.6479999999999997,-0.12 4.245,0.146 4.973,0.146 C5.915,0.146 6.664,-0.22099999999999997 7.218,-0.956 C7.772,-1.6909999999999998 8.049,-2.674 8.049,-3.904 C8.049,-3.904 8.049,-4.021 8.049,-4.021z"></path></g></g></g></svg>