<?xml version="1.0" encoding="UTF-8"?>
<!DOCTYPE svg PUBLIC "-//W3C//DTD SVG 1.1//EN" "http://www.w3.org/Graphics/SVG/1.1/DTD/svg11.dtd">
<svg version="1.1" xmlns="http://www.w3.org/2000/svg" xmlns:xlink="http://www.w3.org/1999/xlink" x="0" y="0" width="120" height="120" viewBox="0, 0, 120, 120">
  <g id="Layer_1">
    <g>
      <g>
        <path d="M42.398,98.682 C42.398,98.682 42.398,98.682 42.398,98.682 C36.998,100.282 31.298,97.082 29.698,91.682 C29.698,91.682 20.298,59.482 20.298,59.482 C18.698,54.082 21.898,48.382 27.298,46.782 C27.298,46.782 27.298,46.782 27.298,46.782 C32.698,45.182 38.398,48.382 39.998,53.782 C39.998,53.782 49.398,85.982 49.398,85.982 C50.898,91.382 47.798,97.082 42.398,98.682 C42.398,98.682 42.398,98.682 42.398,98.682 z" fill="#010101" fill-opacity="0.08"/>
        <path d="M59.898,24.182 C69.066,24.182 76.498,31.614 76.498,40.782 C76.498,49.95 69.066,57.382 59.898,57.382 C50.73,57.382 43.298,49.95 43.298,40.782 C43.298,31.614 50.73,24.182 59.898,24.182 z" fill="#010101" fill-opacity="0.08"/>
        <path d="M69.498,89.182 C69.498,89.182 69.498,89.182 69.498,89.182 C66.598,84.882 67.698,79.082 71.998,76.082 C71.998,76.082 97.398,58.782 97.398,58.782 C101.698,55.882 107.498,56.982 110.498,61.282 C110.498,61.282 110.498,61.282 110.498,61.282 C113.398,65.582 112.298,71.382 107.998,74.382 C107.998,74.382 82.598,91.682 82.598,91.682 C78.198,94.582 72.398,93.482 69.498,89.182 C69.498,89.182 69.498,89.182 69.498,89.182 z" fill="#010101" fill-opacity="0.08"/>
      </g>
      <path d="M67.498,86.182 C67.498,86.182 67.498,86.182 67.498,86.182 C64.598,81.882 65.698,76.082 69.998,73.082 C69.998,73.082 95.398,55.782 95.398,55.782 C99.698,52.882 105.498,53.982 108.498,58.282 C108.498,58.282 108.498,58.282 108.498,58.282 C111.398,62.582 110.298,68.382 105.998,71.382 C105.998,71.382 80.598,88.682 80.598,88.682 C76.198,91.582 70.398,90.482 67.498,86.182 C67.498,86.182 67.498,86.182 67.498,86.182 z" fill="#F9F6EB"/>
      <path d="M81.898,64.982 C81.898,64.982 69.498,73.482 69.498,73.482 C65.398,76.282 64.398,82.082 67.298,86.382 C67.298,86.382 67.298,86.382 67.298,86.382 C70.198,90.682 75.998,91.882 80.098,89.082 C80.098,89.082 92.498,80.582 92.498,80.582 C92.498,80.582 81.898,64.982 81.898,64.982 C81.898,64.982 81.898,64.982 81.898,64.982 z" fill="#5BC2A8"/>
      <g>
        <path d="M67.498,86.182 C67.498,86.182 67.498,86.182 67.498,86.182 C64.598,81.882 65.698,76.082 69.998,73.082 C69.998,73.082 95.398,55.782 95.398,55.782 C99.698,52.882 105.498,53.982 108.498,58.282 C108.498,58.282 108.498,58.282 108.498,58.282 C111.398,62.582 110.298,68.382 105.998,71.382 C105.998,71.382 80.598,88.682 80.598,88.682 C76.198,91.582 70.398,90.482 67.498,86.182 C67.498,86.182 67.498,86.182 67.498,86.182 z" fill-opacity="0" stroke="#603256" stroke-width="1.835"/>
        <path d="M81.898,64.982 C81.898,64.982 92.198,80.182 92.198,80.182" fill-opacity="0" stroke="#603256" stroke-width="1.835"/>
      </g>
      <path d="M74.598,87.782 C75.898,87.882 77.098,87.582 78.198,86.882 C78.998,86.382 78.298,85.082 77.398,85.582 C76.498,86.082 75.598,86.282 74.498,86.282 C73.598,86.282 73.598,87.782 74.598,87.782 C74.598,87.782 74.598,87.782 74.598,87.782 C74.598,87.782 74.598,87.782 74.598,87.782 z" fill="#F9F6EB"/>
      <g>
        <path d="M56.998,24.782 C65.282,24.782 71.998,31.498 71.998,39.782 C71.998,48.066 65.282,54.782 56.998,54.782 C48.714,54.782 41.998,48.066 41.998,39.782 C41.998,31.498 48.714,24.782 56.998,24.782 z" fill="#F9F6EB"/>
        <path d="M56.998,24.782 C65.282,24.782 71.998,31.498 71.998,39.782 C71.998,48.066 65.282,54.782 56.998,54.782 C48.714,54.782 41.998,48.066 41.998,39.782 C41.998,31.498 48.714,24.782 56.998,24.782 z" fill-opacity="0" stroke="#603256" stroke-width="2"/>
      </g>
      <g>
        <path d="M53.198,23.982 C61.482,23.982 68.198,30.698 68.198,38.982 C68.198,47.266 61.482,53.982 53.198,53.982 C44.914,53.982 38.198,47.266 38.198,38.982 C38.198,30.698 44.914,23.982 53.198,23.982 z" fill="#F9F6EB"/>
        <path d="M53.198,23.982 C61.482,23.982 68.198,30.698 68.198,38.982 C68.198,47.266 61.482,53.982 53.198,53.982 C44.914,53.982 38.198,47.266 38.198,38.982 C38.198,30.698 44.914,23.982 53.198,23.982 z" fill-opacity="0" stroke="#603256" stroke-width="2"/>
      </g>
      <g>
        <path d="M51.598,24.782 C51.598,24.782 51.598,53.782 51.598,53.782" fill-opacity="0" stroke="#603256" stroke-width="2"/>
        <path d="M55.598,23.782 C55.598,23.782 55.598,53.782 55.598,53.782" fill-opacity="0" stroke="#603256" stroke-width="2"/>
      </g>
      <g>
        <path d="M30.398,97.682 C30.398,97.682 30.398,97.682 30.398,97.682 C24.998,99.282 19.298,96.082 17.698,90.682 C17.698,90.682 8.298,58.482 8.298,58.482 C6.698,53.082 9.898,47.382 15.298,45.782 C15.298,45.782 15.298,45.782 15.298,45.782 C20.698,44.182 26.398,47.382 27.998,52.782 C27.998,52.782 37.398,84.982 37.398,84.982 C38.898,90.382 35.798,96.082 30.398,97.682 C30.398,97.682 30.398,97.682 30.398,97.682 z" fill="#F9F6EB"/>
        <path d="M13.298,75.582 C13.298,75.582 17.898,91.282 17.898,91.282 C19.398,96.482 25.098,99.482 30.498,97.882 C30.498,97.882 30.498,97.882 30.498,97.882 C35.898,96.282 39.098,90.782 37.598,85.582 C37.598,85.582 32.998,69.882 32.998,69.882 C32.998,69.882 13.298,75.582 13.298,75.582 C13.298,75.582 13.298,75.582 13.298,75.582 z" fill="#F26B53"/>
      </g>
      <g>
        <path d="M30.398,97.682 C30.398,97.682 30.398,97.682 30.398,97.682 C24.998,99.282 19.298,96.082 17.698,90.682 C17.698,90.682 8.298,58.482 8.298,58.482 C6.698,53.082 9.898,47.382 15.298,45.782 C15.298,45.782 15.298,45.782 15.298,45.782 C20.698,44.182 26.398,47.382 27.998,52.782 C27.998,52.782 37.398,84.982 37.398,84.982 C38.898,90.382 35.798,96.082 30.398,97.682 C30.398,97.682 30.398,97.682 30.398,97.682 z" fill-opacity="0" stroke="#603256" stroke-width="2"/>
        <path d="M13.298,75.582 C13.298,75.582 32.498,69.982 32.498,69.982" fill-opacity="0" stroke="#603256" stroke-width="2"/>
      </g>
      <path d="M19.798,88.582 C20.498,91.282 22.398,93.582 24.998,94.782 C25.898,95.182 26.598,93.882 25.798,93.482 C23.598,92.482 21.998,90.582 21.298,88.182 C20.998,87.282 19.498,87.682 19.798,88.582 C19.798,88.582 19.798,88.582 19.798,88.582 C19.798,88.582 19.798,88.582 19.798,88.582 z" fill="#F9F6EB"/>
    </g>
  </g>
</svg>
