<?xml version="1.0" encoding="UTF-8"?>
<!DOCTYPE svg PUBLIC "-//W3C//DTD SVG 1.1//EN" "http://www.w3.org/Graphics/SVG/1.1/DTD/svg11.dtd">
<svg version="1.1" xmlns="http://www.w3.org/2000/svg" xmlns:xlink="http://www.w3.org/1999/xlink" x="0" y="0" width="150" height="150" viewBox="0, 0, 150, 150">
  <g id="Layer_1">
    <g>
      <g>
        <path d="M57.398,112.244 C57.398,112.244 57.398,112.244 57.398,112.244 C51.998,113.844 46.298,110.644 44.698,105.244 C44.698,105.244 35.298,73.044 35.298,73.044 C33.698,67.644 36.898,61.944 42.298,60.344 C42.298,60.344 42.298,60.344 42.298,60.344 C47.698,58.744 53.398,61.944 54.998,67.344 C54.998,67.344 64.398,99.544 64.398,99.544 C65.898,104.944 62.798,110.644 57.398,112.244 C57.398,112.244 57.398,112.244 57.398,112.244 z" fill="#010101" fill-opacity="0.08"/>
        <path d="M74.898,37.744 C84.066,37.744 91.498,45.176 91.498,54.344 C91.498,63.512 84.066,70.944 74.898,70.944 C65.73,70.944 58.298,63.512 58.298,54.344 C58.298,45.176 65.73,37.744 74.898,37.744 z" fill="#010101" fill-opacity="0.08"/>
        <path d="M84.498,102.744 C84.498,102.744 84.498,102.744 84.498,102.744 C81.598,98.444 82.698,92.644 86.998,89.644 C86.998,89.644 112.398,72.344 112.398,72.344 C116.698,69.444 122.498,70.544 125.498,74.844 C125.498,74.844 125.498,74.844 125.498,74.844 C128.398,79.144 127.298,84.944 122.998,87.944 C122.998,87.944 97.598,105.244 97.598,105.244 C93.198,108.144 87.398,107.044 84.498,102.744 C84.498,102.744 84.498,102.744 84.498,102.744 z" fill="#010101" fill-opacity="0.08"/>
      </g>
      <path d="M82.498,99.744 C82.498,99.744 82.498,99.744 82.498,99.744 C79.598,95.444 80.698,89.644 84.998,86.644 C84.998,86.644 110.398,69.344 110.398,69.344 C114.698,66.444 120.498,67.544 123.498,71.844 C123.498,71.844 123.498,71.844 123.498,71.844 C126.398,76.144 125.298,81.944 120.998,84.944 C120.998,84.944 95.598,102.244 95.598,102.244 C91.198,105.144 85.398,104.044 82.498,99.744 C82.498,99.744 82.498,99.744 82.498,99.744 z" fill="#F9F6EB"/>
      <path d="M96.898,78.544 C96.898,78.544 84.498,87.044 84.498,87.044 C80.398,89.844 79.398,95.644 82.298,99.944 C82.298,99.944 82.298,99.944 82.298,99.944 C85.198,104.244 90.998,105.444 95.098,102.644 C95.098,102.644 107.498,94.144 107.498,94.144 C107.498,94.144 96.898,78.544 96.898,78.544 C96.898,78.544 96.898,78.544 96.898,78.544 z" fill="#5BC2A8"/>
      <g>
        <path d="M82.498,99.744 C82.498,99.744 82.498,99.744 82.498,99.744 C79.598,95.444 80.698,89.644 84.998,86.644 C84.998,86.644 110.398,69.344 110.398,69.344 C114.698,66.444 120.498,67.544 123.498,71.844 C123.498,71.844 123.498,71.844 123.498,71.844 C126.398,76.144 125.298,81.944 120.998,84.944 C120.998,84.944 95.598,102.244 95.598,102.244 C91.198,105.144 85.398,104.044 82.498,99.744 C82.498,99.744 82.498,99.744 82.498,99.744 z" fill-opacity="0" stroke="#603256" stroke-width="1.835"/>
        <path d="M96.898,78.544 C96.898,78.544 107.198,93.744 107.198,93.744" fill-opacity="0" stroke="#603256" stroke-width="1.835"/>
      </g>
      <path d="M89.598,101.344 C90.898,101.444 92.098,101.144 93.198,100.444 C93.998,99.944 93.298,98.644 92.398,99.144 C91.498,99.644 90.598,99.844 89.498,99.844 C88.598,99.844 88.598,101.344 89.598,101.344 C89.598,101.344 89.598,101.344 89.598,101.344 C89.598,101.344 89.598,101.344 89.598,101.344 z" fill="#F9F6EB"/>
      <g>
        <path d="M71.998,38.344 C80.282,38.344 86.998,45.06 86.998,53.344 C86.998,61.628 80.282,68.344 71.998,68.344 C63.714,68.344 56.998,61.628 56.998,53.344 C56.998,45.06 63.714,38.344 71.998,38.344 z" fill="#F9F6EB"/>
        <path d="M71.998,38.344 C80.282,38.344 86.998,45.06 86.998,53.344 C86.998,61.628 80.282,68.344 71.998,68.344 C63.714,68.344 56.998,61.628 56.998,53.344 C56.998,45.06 63.714,38.344 71.998,38.344 z" fill-opacity="0" stroke="#603256" stroke-width="2"/>
      </g>
      <g>
        <path d="M68.198,37.544 C76.482,37.544 83.198,44.26 83.198,52.544 C83.198,60.828 76.482,67.544 68.198,67.544 C59.914,67.544 53.198,60.828 53.198,52.544 C53.198,44.26 59.914,37.544 68.198,37.544 z" fill="#F9F6EB"/>
        <path d="M68.198,37.544 C76.482,37.544 83.198,44.26 83.198,52.544 C83.198,60.828 76.482,67.544 68.198,67.544 C59.914,67.544 53.198,60.828 53.198,52.544 C53.198,44.26 59.914,37.544 68.198,37.544 z" fill-opacity="0" stroke="#603256" stroke-width="2"/>
      </g>
      <g>
        <path d="M66.598,38.344 C66.598,38.344 66.598,67.344 66.598,67.344" fill-opacity="0" stroke="#603256" stroke-width="2"/>
        <path d="M70.598,37.344 C70.598,37.344 70.598,67.344 70.598,67.344" fill-opacity="0" stroke="#603256" stroke-width="2"/>
      </g>
      <g>
        <path d="M45.398,111.244 C45.398,111.244 45.398,111.244 45.398,111.244 C39.998,112.844 34.298,109.644 32.698,104.244 C32.698,104.244 23.298,72.044 23.298,72.044 C21.698,66.644 24.898,60.944 30.298,59.344 C30.298,59.344 30.298,59.344 30.298,59.344 C35.698,57.744 41.398,60.944 42.998,66.344 C42.998,66.344 52.398,98.544 52.398,98.544 C53.898,103.944 50.798,109.644 45.398,111.244 C45.398,111.244 45.398,111.244 45.398,111.244 z" fill="#F9F6EB"/>
        <path d="M28.298,89.144 C28.298,89.144 32.898,104.844 32.898,104.844 C34.398,110.044 40.098,113.044 45.498,111.444 C45.498,111.444 45.498,111.444 45.498,111.444 C50.898,109.844 54.098,104.344 52.598,99.144 C52.598,99.144 47.998,83.444 47.998,83.444 C47.998,83.444 28.298,89.144 28.298,89.144 C28.298,89.144 28.298,89.144 28.298,89.144 z" fill="#F26B53"/>
      </g>
      <g>
        <path d="M45.398,111.244 C45.398,111.244 45.398,111.244 45.398,111.244 C39.998,112.844 34.298,109.644 32.698,104.244 C32.698,104.244 23.298,72.044 23.298,72.044 C21.698,66.644 24.898,60.944 30.298,59.344 C30.298,59.344 30.298,59.344 30.298,59.344 C35.698,57.744 41.398,60.944 42.998,66.344 C42.998,66.344 52.398,98.544 52.398,98.544 C53.898,103.944 50.798,109.644 45.398,111.244 C45.398,111.244 45.398,111.244 45.398,111.244 z" fill-opacity="0" stroke="#603256" stroke-width="2"/>
        <path d="M28.298,89.144 C28.298,89.144 47.498,83.544 47.498,83.544" fill-opacity="0" stroke="#603256" stroke-width="2"/>
      </g>
      <path d="M34.798,102.144 C35.498,104.844 37.398,107.144 39.998,108.344 C40.898,108.744 41.598,107.444 40.798,107.044 C38.598,106.044 36.998,104.144 36.298,101.744 C35.998,100.844 34.498,101.244 34.798,102.144 C34.798,102.144 34.798,102.144 34.798,102.144 C34.798,102.144 34.798,102.144 34.798,102.144 z" fill="#F9F6EB"/>
    </g>
  </g>
</svg>
